<mxfile host="www.draw.io" modified="2019-12-16T08:49:57.841Z" agent="Mozilla/5.0 (X11; Ubuntu; Linux x86_64; rv:62.0) Gecko/20100101 Firefox/62.0" etag="ILBELM5V25BSwJocK4E-" version="12.4.2" type="github" pages="1">
  <diagram id="Zlw6RQEjlxsdaL2r8nvr" name="Page-1">
    <mxGraphModel dx="862" dy="447" grid="1" gridSize="10" guides="1" tooltips="1" connect="1" arrows="1" fold="1" page="1" pageScale="1" pageWidth="827" pageHeight="1169" math="0" shadow="0">
      <root>
        <mxCell id="0"/>
        <mxCell id="1" parent="0"/>
        <mxCell id="eSXySc0nS1I4m5UJ5GSd-1" value="Empresa Cervecera" style="swimlane;fontStyle=1;align=center;verticalAlign=top;childLayout=stackLayout;horizontal=1;startSize=26;horizontalStack=0;resizeParent=1;resizeParentMax=0;resizeLast=0;collapsible=1;marginBottom=0;" parent="1" vertex="1">
          <mxGeometry x="40" y="40" width="160" height="164" as="geometry"/>
        </mxCell>
        <mxCell id="eSXySc0nS1I4m5UJ5GSd-2" value="NIF: int" style="text;strokeColor=none;fillColor=none;align=left;verticalAlign=top;spacingLeft=4;spacingRight=4;overflow=hidden;rotatable=0;points=[[0,0.5],[1,0.5]];portConstraint=eastwest;" parent="eSXySc0nS1I4m5UJ5GSd-1" vertex="1">
          <mxGeometry y="26" width="160" height="26" as="geometry"/>
        </mxCell>
        <mxCell id="eSXySc0nS1I4m5UJ5GSd-5" value="nombre: string" style="text;strokeColor=none;fillColor=none;align=left;verticalAlign=top;spacingLeft=4;spacingRight=4;overflow=hidden;rotatable=0;points=[[0,0.5],[1,0.5]];portConstraint=eastwest;" parent="eSXySc0nS1I4m5UJ5GSd-1" vertex="1">
          <mxGeometry y="52" width="160" height="26" as="geometry"/>
        </mxCell>
        <mxCell id="eSXySc0nS1I4m5UJ5GSd-6" value="telefono: long" style="text;strokeColor=none;fillColor=none;align=left;verticalAlign=top;spacingLeft=4;spacingRight=4;overflow=hidden;rotatable=0;points=[[0,0.5],[1,0.5]];portConstraint=eastwest;" parent="eSXySc0nS1I4m5UJ5GSd-1" vertex="1">
          <mxGeometry y="78" width="160" height="26" as="geometry"/>
        </mxCell>
        <mxCell id="eSXySc0nS1I4m5UJ5GSd-7" value="direccion: string&#xa;" style="text;strokeColor=none;fillColor=none;align=left;verticalAlign=top;spacingLeft=4;spacingRight=4;overflow=hidden;rotatable=0;points=[[0,0.5],[1,0.5]];portConstraint=eastwest;" parent="eSXySc0nS1I4m5UJ5GSd-1" vertex="1">
          <mxGeometry y="104" width="160" height="26" as="geometry"/>
        </mxCell>
        <mxCell id="eSXySc0nS1I4m5UJ5GSd-3" value="" style="line;strokeWidth=1;fillColor=none;align=left;verticalAlign=middle;spacingTop=-1;spacingLeft=3;spacingRight=3;rotatable=0;labelPosition=right;points=[];portConstraint=eastwest;" parent="eSXySc0nS1I4m5UJ5GSd-1" vertex="1">
          <mxGeometry y="130" width="160" height="8" as="geometry"/>
        </mxCell>
        <mxCell id="eSXySc0nS1I4m5UJ5GSd-4" value="+ method(type): type" style="text;strokeColor=none;fillColor=none;align=left;verticalAlign=top;spacingLeft=4;spacingRight=4;overflow=hidden;rotatable=0;points=[[0,0.5],[1,0.5]];portConstraint=eastwest;" parent="eSXySc0nS1I4m5UJ5GSd-1" vertex="1">
          <mxGeometry y="138" width="160" height="26" as="geometry"/>
        </mxCell>
        <mxCell id="eSXySc0nS1I4m5UJ5GSd-8" value="Cliente" style="swimlane;fontStyle=1;align=center;verticalAlign=top;childLayout=stackLayout;horizontal=1;startSize=26;horizontalStack=0;resizeParent=1;resizeParentMax=0;resizeLast=0;collapsible=1;marginBottom=0;" parent="1" vertex="1">
          <mxGeometry x="240" y="40" width="160" height="242" as="geometry">
            <mxRectangle x="240" y="40" width="80" height="26" as="alternateBounds"/>
          </mxGeometry>
        </mxCell>
        <mxCell id="eSXySc0nS1I4m5UJ5GSd-9" value="idCliente: int" style="text;strokeColor=none;fillColor=none;align=left;verticalAlign=top;spacingLeft=4;spacingRight=4;overflow=hidden;rotatable=0;points=[[0,0.5],[1,0.5]];portConstraint=eastwest;" parent="eSXySc0nS1I4m5UJ5GSd-8" vertex="1">
          <mxGeometry y="26" width="160" height="26" as="geometry"/>
        </mxCell>
        <mxCell id="eSXySc0nS1I4m5UJ5GSd-19" value="DNI: string" style="text;strokeColor=none;fillColor=none;align=left;verticalAlign=top;spacingLeft=4;spacingRight=4;overflow=hidden;rotatable=0;points=[[0,0.5],[1,0.5]];portConstraint=eastwest;" parent="eSXySc0nS1I4m5UJ5GSd-8" vertex="1">
          <mxGeometry y="52" width="160" height="26" as="geometry"/>
        </mxCell>
        <mxCell id="eSXySc0nS1I4m5UJ5GSd-17" value="nombre: string" style="text;strokeColor=none;fillColor=none;align=left;verticalAlign=top;spacingLeft=4;spacingRight=4;overflow=hidden;rotatable=0;points=[[0,0.5],[1,0.5]];portConstraint=eastwest;" parent="eSXySc0nS1I4m5UJ5GSd-8" vertex="1">
          <mxGeometry y="78" width="160" height="26" as="geometry"/>
        </mxCell>
        <mxCell id="eSXySc0nS1I4m5UJ5GSd-18" value="apellidos: string" style="text;strokeColor=none;fillColor=none;align=left;verticalAlign=top;spacingLeft=4;spacingRight=4;overflow=hidden;rotatable=0;points=[[0,0.5],[1,0.5]];portConstraint=eastwest;" parent="eSXySc0nS1I4m5UJ5GSd-8" vertex="1">
          <mxGeometry y="104" width="160" height="26" as="geometry"/>
        </mxCell>
        <mxCell id="eSXySc0nS1I4m5UJ5GSd-20" value="fechaNacimiento: date" style="text;strokeColor=none;fillColor=none;align=left;verticalAlign=top;spacingLeft=4;spacingRight=4;overflow=hidden;rotatable=0;points=[[0,0.5],[1,0.5]];portConstraint=eastwest;" parent="eSXySc0nS1I4m5UJ5GSd-8" vertex="1">
          <mxGeometry y="130" width="160" height="26" as="geometry"/>
        </mxCell>
        <mxCell id="eSXySc0nS1I4m5UJ5GSd-21" value="direccion: string" style="text;strokeColor=none;fillColor=none;align=left;verticalAlign=top;spacingLeft=4;spacingRight=4;overflow=hidden;rotatable=0;points=[[0,0.5],[1,0.5]];portConstraint=eastwest;" parent="eSXySc0nS1I4m5UJ5GSd-8" vertex="1">
          <mxGeometry y="156" width="160" height="26" as="geometry"/>
        </mxCell>
        <mxCell id="eSXySc0nS1I4m5UJ5GSd-22" value="telefono: long" style="text;strokeColor=none;fillColor=none;align=left;verticalAlign=top;spacingLeft=4;spacingRight=4;overflow=hidden;rotatable=0;points=[[0,0.5],[1,0.5]];portConstraint=eastwest;" parent="eSXySc0nS1I4m5UJ5GSd-8" vertex="1">
          <mxGeometry y="182" width="160" height="26" as="geometry"/>
        </mxCell>
        <mxCell id="eSXySc0nS1I4m5UJ5GSd-10" value="" style="line;strokeWidth=1;fillColor=none;align=left;verticalAlign=middle;spacingTop=-1;spacingLeft=3;spacingRight=3;rotatable=0;labelPosition=right;points=[];portConstraint=eastwest;" parent="eSXySc0nS1I4m5UJ5GSd-8" vertex="1">
          <mxGeometry y="208" width="160" height="8" as="geometry"/>
        </mxCell>
        <mxCell id="eSXySc0nS1I4m5UJ5GSd-11" value="+ method(type): type" style="text;strokeColor=none;fillColor=none;align=left;verticalAlign=top;spacingLeft=4;spacingRight=4;overflow=hidden;rotatable=0;points=[[0,0.5],[1,0.5]];portConstraint=eastwest;" parent="eSXySc0nS1I4m5UJ5GSd-8" vertex="1">
          <mxGeometry y="216" width="160" height="26" as="geometry"/>
        </mxCell>
        <mxCell id="eSXySc0nS1I4m5UJ5GSd-23" value="Pedido" style="swimlane;fontStyle=1;align=center;verticalAlign=top;childLayout=stackLayout;horizontal=1;startSize=26;horizontalStack=0;resizeParent=1;resizeParentMax=0;resizeLast=0;collapsible=1;marginBottom=0;" parent="1" vertex="1">
          <mxGeometry x="240" y="320" width="160" height="216" as="geometry"/>
        </mxCell>
        <mxCell id="eSXySc0nS1I4m5UJ5GSd-24" value="idPedido: int" style="text;strokeColor=none;fillColor=none;align=left;verticalAlign=top;spacingLeft=4;spacingRight=4;overflow=hidden;rotatable=0;points=[[0,0.5],[1,0.5]];portConstraint=eastwest;" parent="eSXySc0nS1I4m5UJ5GSd-23" vertex="1">
          <mxGeometry y="26" width="160" height="26" as="geometry"/>
        </mxCell>
        <mxCell id="eSXySc0nS1I4m5UJ5GSd-27" value="cantidad: int" style="text;strokeColor=none;fillColor=none;align=left;verticalAlign=top;spacingLeft=4;spacingRight=4;overflow=hidden;rotatable=0;points=[[0,0.5],[1,0.5]];portConstraint=eastwest;" parent="eSXySc0nS1I4m5UJ5GSd-23" vertex="1">
          <mxGeometry y="52" width="160" height="26" as="geometry"/>
        </mxCell>
        <mxCell id="eSXySc0nS1I4m5UJ5GSd-28" value="estado: string" style="text;strokeColor=none;fillColor=none;align=left;verticalAlign=top;spacingLeft=4;spacingRight=4;overflow=hidden;rotatable=0;points=[[0,0.5],[1,0.5]];portConstraint=eastwest;" parent="eSXySc0nS1I4m5UJ5GSd-23" vertex="1">
          <mxGeometry y="78" width="160" height="26" as="geometry"/>
        </mxCell>
        <mxCell id="eSXySc0nS1I4m5UJ5GSd-29" value="fechaInicio: date" style="text;strokeColor=none;fillColor=none;align=left;verticalAlign=top;spacingLeft=4;spacingRight=4;overflow=hidden;rotatable=0;points=[[0,0.5],[1,0.5]];portConstraint=eastwest;" parent="eSXySc0nS1I4m5UJ5GSd-23" vertex="1">
          <mxGeometry y="104" width="160" height="26" as="geometry"/>
        </mxCell>
        <mxCell id="eSXySc0nS1I4m5UJ5GSd-30" value="fechaFin: date" style="text;strokeColor=none;fillColor=none;align=left;verticalAlign=top;spacingLeft=4;spacingRight=4;overflow=hidden;rotatable=0;points=[[0,0.5],[1,0.5]];portConstraint=eastwest;" parent="eSXySc0nS1I4m5UJ5GSd-23" vertex="1">
          <mxGeometry y="130" width="160" height="26" as="geometry"/>
        </mxCell>
        <mxCell id="eSXySc0nS1I4m5UJ5GSd-31" value="precioTotal: int" style="text;strokeColor=none;fillColor=none;align=left;verticalAlign=top;spacingLeft=4;spacingRight=4;overflow=hidden;rotatable=0;points=[[0,0.5],[1,0.5]];portConstraint=eastwest;" parent="eSXySc0nS1I4m5UJ5GSd-23" vertex="1">
          <mxGeometry y="156" width="160" height="26" as="geometry"/>
        </mxCell>
        <mxCell id="eSXySc0nS1I4m5UJ5GSd-25" value="" style="line;strokeWidth=1;fillColor=none;align=left;verticalAlign=middle;spacingTop=-1;spacingLeft=3;spacingRight=3;rotatable=0;labelPosition=right;points=[];portConstraint=eastwest;" parent="eSXySc0nS1I4m5UJ5GSd-23" vertex="1">
          <mxGeometry y="182" width="160" height="8" as="geometry"/>
        </mxCell>
        <mxCell id="eSXySc0nS1I4m5UJ5GSd-26" value="+ method(type): type" style="text;strokeColor=none;fillColor=none;align=left;verticalAlign=top;spacingLeft=4;spacingRight=4;overflow=hidden;rotatable=0;points=[[0,0.5],[1,0.5]];portConstraint=eastwest;" parent="eSXySc0nS1I4m5UJ5GSd-23" vertex="1">
          <mxGeometry y="190" width="160" height="26" as="geometry"/>
        </mxCell>
        <mxCell id="eSXySc0nS1I4m5UJ5GSd-32" value="UpoBeer" style="swimlane;fontStyle=1;align=center;verticalAlign=top;childLayout=stackLayout;horizontal=1;startSize=26;horizontalStack=0;resizeParent=1;resizeParentMax=0;resizeLast=0;collapsible=1;marginBottom=0;" parent="1" vertex="1">
          <mxGeometry x="440" y="40" width="160" height="214" as="geometry">
            <mxRectangle x="440" y="40" width="90" height="26" as="alternateBounds"/>
          </mxGeometry>
        </mxCell>
        <mxCell id="eSXySc0nS1I4m5UJ5GSd-33" value="catalogo: array de cervezas" style="text;strokeColor=none;fillColor=none;align=left;verticalAlign=top;spacingLeft=4;spacingRight=4;overflow=hidden;rotatable=0;points=[[0,0.5],[1,0.5]];portConstraint=eastwest;" parent="eSXySc0nS1I4m5UJ5GSd-32" vertex="1">
          <mxGeometry y="26" width="160" height="26" as="geometry"/>
        </mxCell>
        <mxCell id="eSXySc0nS1I4m5UJ5GSd-36" value="tPedidos: array de pedidos" style="text;strokeColor=none;fillColor=none;align=left;verticalAlign=top;spacingLeft=4;spacingRight=4;overflow=hidden;rotatable=0;points=[[0,0.5],[1,0.5]];portConstraint=eastwest;" parent="eSXySc0nS1I4m5UJ5GSd-32" vertex="1">
          <mxGeometry y="52" width="160" height="26" as="geometry"/>
        </mxCell>
        <mxCell id="eSXySc0nS1I4m5UJ5GSd-37" value="tClientes: array de clientes" style="text;strokeColor=none;fillColor=none;align=left;verticalAlign=top;spacingLeft=4;spacingRight=4;overflow=hidden;rotatable=0;points=[[0,0.5],[1,0.5]];portConstraint=eastwest;" parent="eSXySc0nS1I4m5UJ5GSd-32" vertex="1">
          <mxGeometry y="78" width="160" height="26" as="geometry"/>
        </mxCell>
        <mxCell id="eSXySc0nS1I4m5UJ5GSd-38" value="tOperarios: array de&#xa;operarios" style="text;strokeColor=none;fillColor=none;align=left;verticalAlign=top;spacingLeft=4;spacingRight=4;overflow=hidden;rotatable=0;points=[[0,0.5],[1,0.5]];portConstraint=eastwest;" parent="eSXySc0nS1I4m5UJ5GSd-32" vertex="1">
          <mxGeometry y="104" width="160" height="36" as="geometry"/>
        </mxCell>
        <mxCell id="9fYLLG3nbcqlpsCX_nVO-1" value="tEmpresasReparto: array&#xa;de empresas" style="text;strokeColor=none;fillColor=none;align=left;verticalAlign=top;spacingLeft=4;spacingRight=4;overflow=hidden;rotatable=0;points=[[0,0.5],[1,0.5]];portConstraint=eastwest;" vertex="1" parent="eSXySc0nS1I4m5UJ5GSd-32">
          <mxGeometry y="140" width="160" height="40" as="geometry"/>
        </mxCell>
        <mxCell id="eSXySc0nS1I4m5UJ5GSd-34" value="" style="line;strokeWidth=1;fillColor=none;align=left;verticalAlign=middle;spacingTop=-1;spacingLeft=3;spacingRight=3;rotatable=0;labelPosition=right;points=[];portConstraint=eastwest;" parent="eSXySc0nS1I4m5UJ5GSd-32" vertex="1">
          <mxGeometry y="180" width="160" height="8" as="geometry"/>
        </mxCell>
        <mxCell id="eSXySc0nS1I4m5UJ5GSd-35" value="+ method(type): type" style="text;strokeColor=none;fillColor=none;align=left;verticalAlign=top;spacingLeft=4;spacingRight=4;overflow=hidden;rotatable=0;points=[[0,0.5],[1,0.5]];portConstraint=eastwest;" parent="eSXySc0nS1I4m5UJ5GSd-32" vertex="1">
          <mxGeometry y="188" width="160" height="26" as="geometry"/>
        </mxCell>
        <mxCell id="eSXySc0nS1I4m5UJ5GSd-39" value="Cerveza" style="swimlane;fontStyle=1;align=center;verticalAlign=top;childLayout=stackLayout;horizontal=1;startSize=26;horizontalStack=0;resizeParent=1;resizeParentMax=0;resizeLast=0;collapsible=1;marginBottom=0;" parent="1" vertex="1">
          <mxGeometry x="440" y="294" width="160" height="242" as="geometry"/>
        </mxCell>
        <mxCell id="eSXySc0nS1I4m5UJ5GSd-40" value="idCerveza: int" style="text;strokeColor=none;fillColor=none;align=left;verticalAlign=top;spacingLeft=4;spacingRight=4;overflow=hidden;rotatable=0;points=[[0,0.5],[1,0.5]];portConstraint=eastwest;" parent="eSXySc0nS1I4m5UJ5GSd-39" vertex="1">
          <mxGeometry y="26" width="160" height="26" as="geometry"/>
        </mxCell>
        <mxCell id="eSXySc0nS1I4m5UJ5GSd-43" value="nombre: string" style="text;strokeColor=none;fillColor=none;align=left;verticalAlign=top;spacingLeft=4;spacingRight=4;overflow=hidden;rotatable=0;points=[[0,0.5],[1,0.5]];portConstraint=eastwest;" parent="eSXySc0nS1I4m5UJ5GSd-39" vertex="1">
          <mxGeometry y="52" width="160" height="26" as="geometry"/>
        </mxCell>
        <mxCell id="eSXySc0nS1I4m5UJ5GSd-45" value="alcohol: int" style="text;strokeColor=none;fillColor=none;align=left;verticalAlign=top;spacingLeft=4;spacingRight=4;overflow=hidden;rotatable=0;points=[[0,0.5],[1,0.5]];portConstraint=eastwest;" parent="eSXySc0nS1I4m5UJ5GSd-39" vertex="1">
          <mxGeometry y="78" width="160" height="26" as="geometry"/>
        </mxCell>
        <mxCell id="eSXySc0nS1I4m5UJ5GSd-57" value="precioUnidad: int" style="text;strokeColor=none;fillColor=none;align=left;verticalAlign=top;spacingLeft=4;spacingRight=4;overflow=hidden;rotatable=0;points=[[0,0.5],[1,0.5]];portConstraint=eastwest;" parent="eSXySc0nS1I4m5UJ5GSd-39" vertex="1">
          <mxGeometry y="104" width="160" height="26" as="geometry"/>
        </mxCell>
        <mxCell id="eSXySc0nS1I4m5UJ5GSd-59" value="stock: int" style="text;strokeColor=none;fillColor=none;align=left;verticalAlign=top;spacingLeft=4;spacingRight=4;overflow=hidden;rotatable=0;points=[[0,0.5],[1,0.5]];portConstraint=eastwest;" parent="eSXySc0nS1I4m5UJ5GSd-39" vertex="1">
          <mxGeometry y="130" width="160" height="26" as="geometry"/>
        </mxCell>
        <mxCell id="eSXySc0nS1I4m5UJ5GSd-56" value="foto: string" style="text;strokeColor=none;fillColor=none;align=left;verticalAlign=top;spacingLeft=4;spacingRight=4;overflow=hidden;rotatable=0;points=[[0,0.5],[1,0.5]];portConstraint=eastwest;" parent="eSXySc0nS1I4m5UJ5GSd-39" vertex="1">
          <mxGeometry y="156" width="160" height="26" as="geometry"/>
        </mxCell>
        <mxCell id="eSXySc0nS1I4m5UJ5GSd-58" value="descripcion: string" style="text;strokeColor=none;fillColor=none;align=left;verticalAlign=top;spacingLeft=4;spacingRight=4;overflow=hidden;rotatable=0;points=[[0,0.5],[1,0.5]];portConstraint=eastwest;" parent="eSXySc0nS1I4m5UJ5GSd-39" vertex="1">
          <mxGeometry y="182" width="160" height="26" as="geometry"/>
        </mxCell>
        <mxCell id="eSXySc0nS1I4m5UJ5GSd-41" value="" style="line;strokeWidth=1;fillColor=none;align=left;verticalAlign=middle;spacingTop=-1;spacingLeft=3;spacingRight=3;rotatable=0;labelPosition=right;points=[];portConstraint=eastwest;" parent="eSXySc0nS1I4m5UJ5GSd-39" vertex="1">
          <mxGeometry y="208" width="160" height="8" as="geometry"/>
        </mxCell>
        <mxCell id="eSXySc0nS1I4m5UJ5GSd-42" value="+ method(type): type" style="text;strokeColor=none;fillColor=none;align=left;verticalAlign=top;spacingLeft=4;spacingRight=4;overflow=hidden;rotatable=0;points=[[0,0.5],[1,0.5]];portConstraint=eastwest;" parent="eSXySc0nS1I4m5UJ5GSd-39" vertex="1">
          <mxGeometry y="216" width="160" height="26" as="geometry"/>
        </mxCell>
        <mxCell id="eSXySc0nS1I4m5UJ5GSd-46" value="He añadido la clase upobeer con varios arrays de datos. He quitado la clase ingrediente, se puede sustituir por stock de esa cerveza. He quitado la variable foto en cliente. He quitado maduracion y envasado de la clase cerveza. He quitado descripcion en la clase operario y he añadido boolean de si es supervisor o no. He quitado descripcion en vehiculo, se puede poner marca y modelo, o tipo de vehiculo (furgoneta, camion, etc), la matricula en vez del id o además, año del coche." style="shape=note;whiteSpace=wrap;html=1;size=14;verticalAlign=top;align=left;spacingTop=-6;fillColor=#e1d5e7;strokeColor=#9673a6;" parent="1" vertex="1">
          <mxGeometry x="660" y="40" width="210" height="240" as="geometry"/>
        </mxCell>
        <mxCell id="eSXySc0nS1I4m5UJ5GSd-48" value="Operario" style="swimlane;fontStyle=1;align=center;verticalAlign=top;childLayout=stackLayout;horizontal=1;startSize=26;horizontalStack=0;resizeParent=1;resizeParentMax=0;resizeLast=0;collapsible=1;marginBottom=0;" parent="1" vertex="1">
          <mxGeometry x="40" y="320" width="160" height="190" as="geometry"/>
        </mxCell>
        <mxCell id="eSXySc0nS1I4m5UJ5GSd-49" value="idOperario: int" style="text;strokeColor=none;fillColor=none;align=left;verticalAlign=top;spacingLeft=4;spacingRight=4;overflow=hidden;rotatable=0;points=[[0,0.5],[1,0.5]];portConstraint=eastwest;" parent="eSXySc0nS1I4m5UJ5GSd-48" vertex="1">
          <mxGeometry y="26" width="160" height="26" as="geometry"/>
        </mxCell>
        <mxCell id="eSXySc0nS1I4m5UJ5GSd-52" value="nombre: string" style="text;strokeColor=none;fillColor=none;align=left;verticalAlign=top;spacingLeft=4;spacingRight=4;overflow=hidden;rotatable=0;points=[[0,0.5],[1,0.5]];portConstraint=eastwest;" parent="eSXySc0nS1I4m5UJ5GSd-48" vertex="1">
          <mxGeometry y="52" width="160" height="26" as="geometry"/>
        </mxCell>
        <mxCell id="eSXySc0nS1I4m5UJ5GSd-53" value="DNI: string" style="text;strokeColor=none;fillColor=none;align=left;verticalAlign=top;spacingLeft=4;spacingRight=4;overflow=hidden;rotatable=0;points=[[0,0.5],[1,0.5]];portConstraint=eastwest;" parent="eSXySc0nS1I4m5UJ5GSd-48" vertex="1">
          <mxGeometry y="78" width="160" height="26" as="geometry"/>
        </mxCell>
        <mxCell id="eSXySc0nS1I4m5UJ5GSd-55" value="telefono: long" style="text;strokeColor=none;fillColor=none;align=left;verticalAlign=top;spacingLeft=4;spacingRight=4;overflow=hidden;rotatable=0;points=[[0,0.5],[1,0.5]];portConstraint=eastwest;" parent="eSXySc0nS1I4m5UJ5GSd-48" vertex="1">
          <mxGeometry y="104" width="160" height="26" as="geometry"/>
        </mxCell>
        <mxCell id="eSXySc0nS1I4m5UJ5GSd-54" value="supervisor: boolean" style="text;strokeColor=none;fillColor=none;align=left;verticalAlign=top;spacingLeft=4;spacingRight=4;overflow=hidden;rotatable=0;points=[[0,0.5],[1,0.5]];portConstraint=eastwest;" parent="eSXySc0nS1I4m5UJ5GSd-48" vertex="1">
          <mxGeometry y="130" width="160" height="26" as="geometry"/>
        </mxCell>
        <mxCell id="eSXySc0nS1I4m5UJ5GSd-50" value="" style="line;strokeWidth=1;fillColor=none;align=left;verticalAlign=middle;spacingTop=-1;spacingLeft=3;spacingRight=3;rotatable=0;labelPosition=right;points=[];portConstraint=eastwest;" parent="eSXySc0nS1I4m5UJ5GSd-48" vertex="1">
          <mxGeometry y="156" width="160" height="8" as="geometry"/>
        </mxCell>
        <mxCell id="eSXySc0nS1I4m5UJ5GSd-51" value="+ method(type): type" style="text;strokeColor=none;fillColor=none;align=left;verticalAlign=top;spacingLeft=4;spacingRight=4;overflow=hidden;rotatable=0;points=[[0,0.5],[1,0.5]];portConstraint=eastwest;" parent="eSXySc0nS1I4m5UJ5GSd-48" vertex="1">
          <mxGeometry y="164" width="160" height="26" as="geometry"/>
        </mxCell>
        <mxCell id="eSXySc0nS1I4m5UJ5GSd-60" value="Envio" style="swimlane;fontStyle=1;align=center;verticalAlign=top;childLayout=stackLayout;horizontal=1;startSize=26;horizontalStack=0;resizeParent=1;resizeParentMax=0;resizeLast=0;collapsible=1;marginBottom=0;" parent="1" vertex="1">
          <mxGeometry x="240" y="576" width="160" height="138" as="geometry"/>
        </mxCell>
        <mxCell id="eSXySc0nS1I4m5UJ5GSd-61" value="idEnvio: int" style="text;strokeColor=none;fillColor=none;align=left;verticalAlign=top;spacingLeft=4;spacingRight=4;overflow=hidden;rotatable=0;points=[[0,0.5],[1,0.5]];portConstraint=eastwest;" parent="eSXySc0nS1I4m5UJ5GSd-60" vertex="1">
          <mxGeometry y="26" width="160" height="26" as="geometry"/>
        </mxCell>
        <mxCell id="eSXySc0nS1I4m5UJ5GSd-64" value="fechaSalida: date" style="text;strokeColor=none;fillColor=none;align=left;verticalAlign=top;spacingLeft=4;spacingRight=4;overflow=hidden;rotatable=0;points=[[0,0.5],[1,0.5]];portConstraint=eastwest;" parent="eSXySc0nS1I4m5UJ5GSd-60" vertex="1">
          <mxGeometry y="52" width="160" height="26" as="geometry"/>
        </mxCell>
        <mxCell id="eSXySc0nS1I4m5UJ5GSd-65" value="fechaEntrega: date" style="text;strokeColor=none;fillColor=none;align=left;verticalAlign=top;spacingLeft=4;spacingRight=4;overflow=hidden;rotatable=0;points=[[0,0.5],[1,0.5]];portConstraint=eastwest;" parent="eSXySc0nS1I4m5UJ5GSd-60" vertex="1">
          <mxGeometry y="78" width="160" height="26" as="geometry"/>
        </mxCell>
        <mxCell id="eSXySc0nS1I4m5UJ5GSd-62" value="" style="line;strokeWidth=1;fillColor=none;align=left;verticalAlign=middle;spacingTop=-1;spacingLeft=3;spacingRight=3;rotatable=0;labelPosition=right;points=[];portConstraint=eastwest;" parent="eSXySc0nS1I4m5UJ5GSd-60" vertex="1">
          <mxGeometry y="104" width="160" height="8" as="geometry"/>
        </mxCell>
        <mxCell id="eSXySc0nS1I4m5UJ5GSd-63" value="+ method(type): type" style="text;strokeColor=none;fillColor=none;align=left;verticalAlign=top;spacingLeft=4;spacingRight=4;overflow=hidden;rotatable=0;points=[[0,0.5],[1,0.5]];portConstraint=eastwest;" parent="eSXySc0nS1I4m5UJ5GSd-60" vertex="1">
          <mxGeometry y="112" width="160" height="26" as="geometry"/>
        </mxCell>
        <mxCell id="eSXySc0nS1I4m5UJ5GSd-66" value="Empresa Reparto" style="swimlane;fontStyle=1;align=center;verticalAlign=top;childLayout=stackLayout;horizontal=1;startSize=26;horizontalStack=0;resizeParent=1;resizeParentMax=0;resizeLast=0;collapsible=1;marginBottom=0;" parent="1" vertex="1">
          <mxGeometry x="40" y="550" width="160" height="164" as="geometry"/>
        </mxCell>
        <mxCell id="eSXySc0nS1I4m5UJ5GSd-67" value="NIF: int" style="text;strokeColor=none;fillColor=none;align=left;verticalAlign=top;spacingLeft=4;spacingRight=4;overflow=hidden;rotatable=0;points=[[0,0.5],[1,0.5]];portConstraint=eastwest;" parent="eSXySc0nS1I4m5UJ5GSd-66" vertex="1">
          <mxGeometry y="26" width="160" height="26" as="geometry"/>
        </mxCell>
        <mxCell id="eSXySc0nS1I4m5UJ5GSd-70" value="nombre: string" style="text;strokeColor=none;fillColor=none;align=left;verticalAlign=top;spacingLeft=4;spacingRight=4;overflow=hidden;rotatable=0;points=[[0,0.5],[1,0.5]];portConstraint=eastwest;" parent="eSXySc0nS1I4m5UJ5GSd-66" vertex="1">
          <mxGeometry y="52" width="160" height="26" as="geometry"/>
        </mxCell>
        <mxCell id="eSXySc0nS1I4m5UJ5GSd-71" value="telefono: long" style="text;strokeColor=none;fillColor=none;align=left;verticalAlign=top;spacingLeft=4;spacingRight=4;overflow=hidden;rotatable=0;points=[[0,0.5],[1,0.5]];portConstraint=eastwest;" parent="eSXySc0nS1I4m5UJ5GSd-66" vertex="1">
          <mxGeometry y="78" width="160" height="26" as="geometry"/>
        </mxCell>
        <mxCell id="eSXySc0nS1I4m5UJ5GSd-72" value="direccion: string" style="text;strokeColor=none;fillColor=none;align=left;verticalAlign=top;spacingLeft=4;spacingRight=4;overflow=hidden;rotatable=0;points=[[0,0.5],[1,0.5]];portConstraint=eastwest;" parent="eSXySc0nS1I4m5UJ5GSd-66" vertex="1">
          <mxGeometry y="104" width="160" height="26" as="geometry"/>
        </mxCell>
        <mxCell id="eSXySc0nS1I4m5UJ5GSd-68" value="" style="line;strokeWidth=1;fillColor=none;align=left;verticalAlign=middle;spacingTop=-1;spacingLeft=3;spacingRight=3;rotatable=0;labelPosition=right;points=[];portConstraint=eastwest;" parent="eSXySc0nS1I4m5UJ5GSd-66" vertex="1">
          <mxGeometry y="130" width="160" height="8" as="geometry"/>
        </mxCell>
        <mxCell id="eSXySc0nS1I4m5UJ5GSd-69" value="+ method(type): type" style="text;strokeColor=none;fillColor=none;align=left;verticalAlign=top;spacingLeft=4;spacingRight=4;overflow=hidden;rotatable=0;points=[[0,0.5],[1,0.5]];portConstraint=eastwest;" parent="eSXySc0nS1I4m5UJ5GSd-66" vertex="1">
          <mxGeometry y="138" width="160" height="26" as="geometry"/>
        </mxCell>
        <mxCell id="eSXySc0nS1I4m5UJ5GSd-73" value="Vehículo" style="swimlane;fontStyle=1;align=center;verticalAlign=top;childLayout=stackLayout;horizontal=1;startSize=26;horizontalStack=0;resizeParent=1;resizeParentMax=0;resizeLast=0;collapsible=1;marginBottom=0;" parent="1" vertex="1">
          <mxGeometry x="440" y="550" width="160" height="216" as="geometry"/>
        </mxCell>
        <mxCell id="eSXySc0nS1I4m5UJ5GSd-74" value="idVehiculo: int" style="text;strokeColor=none;fillColor=none;align=left;verticalAlign=top;spacingLeft=4;spacingRight=4;overflow=hidden;rotatable=0;points=[[0,0.5],[1,0.5]];portConstraint=eastwest;" parent="eSXySc0nS1I4m5UJ5GSd-73" vertex="1">
          <mxGeometry y="26" width="160" height="26" as="geometry"/>
        </mxCell>
        <mxCell id="eSXySc0nS1I4m5UJ5GSd-81" value="matricula: string" style="text;strokeColor=none;fillColor=none;align=left;verticalAlign=top;spacingLeft=4;spacingRight=4;overflow=hidden;rotatable=0;points=[[0,0.5],[1,0.5]];portConstraint=eastwest;" parent="eSXySc0nS1I4m5UJ5GSd-73" vertex="1">
          <mxGeometry y="52" width="160" height="26" as="geometry"/>
        </mxCell>
        <mxCell id="eSXySc0nS1I4m5UJ5GSd-77" value="marca: string" style="text;strokeColor=none;fillColor=none;align=left;verticalAlign=top;spacingLeft=4;spacingRight=4;overflow=hidden;rotatable=0;points=[[0,0.5],[1,0.5]];portConstraint=eastwest;" parent="eSXySc0nS1I4m5UJ5GSd-73" vertex="1">
          <mxGeometry y="78" width="160" height="26" as="geometry"/>
        </mxCell>
        <mxCell id="eSXySc0nS1I4m5UJ5GSd-78" value="modelo: string" style="text;strokeColor=none;fillColor=none;align=left;verticalAlign=top;spacingLeft=4;spacingRight=4;overflow=hidden;rotatable=0;points=[[0,0.5],[1,0.5]];portConstraint=eastwest;" parent="eSXySc0nS1I4m5UJ5GSd-73" vertex="1">
          <mxGeometry y="104" width="160" height="26" as="geometry"/>
        </mxCell>
        <mxCell id="eSXySc0nS1I4m5UJ5GSd-79" value="tipo: string" style="text;strokeColor=none;fillColor=none;align=left;verticalAlign=top;spacingLeft=4;spacingRight=4;overflow=hidden;rotatable=0;points=[[0,0.5],[1,0.5]];portConstraint=eastwest;" parent="eSXySc0nS1I4m5UJ5GSd-73" vertex="1">
          <mxGeometry y="130" width="160" height="26" as="geometry"/>
        </mxCell>
        <mxCell id="eSXySc0nS1I4m5UJ5GSd-80" value="añoFabricacion: int" style="text;strokeColor=none;fillColor=none;align=left;verticalAlign=top;spacingLeft=4;spacingRight=4;overflow=hidden;rotatable=0;points=[[0,0.5],[1,0.5]];portConstraint=eastwest;" parent="eSXySc0nS1I4m5UJ5GSd-73" vertex="1">
          <mxGeometry y="156" width="160" height="26" as="geometry"/>
        </mxCell>
        <mxCell id="eSXySc0nS1I4m5UJ5GSd-75" value="" style="line;strokeWidth=1;fillColor=none;align=left;verticalAlign=middle;spacingTop=-1;spacingLeft=3;spacingRight=3;rotatable=0;labelPosition=right;points=[];portConstraint=eastwest;" parent="eSXySc0nS1I4m5UJ5GSd-73" vertex="1">
          <mxGeometry y="182" width="160" height="8" as="geometry"/>
        </mxCell>
        <mxCell id="eSXySc0nS1I4m5UJ5GSd-76" value="+ method(type): type" style="text;strokeColor=none;fillColor=none;align=left;verticalAlign=top;spacingLeft=4;spacingRight=4;overflow=hidden;rotatable=0;points=[[0,0.5],[1,0.5]];portConstraint=eastwest;" parent="eSXySc0nS1I4m5UJ5GSd-73" vertex="1">
          <mxGeometry y="190" width="160" height="26" as="geometry"/>
        </mxCell>
        <mxCell id="eSXySc0nS1I4m5UJ5GSd-82" value="Conductor" style="swimlane;fontStyle=1;align=center;verticalAlign=top;childLayout=stackLayout;horizontal=1;startSize=26;horizontalStack=0;resizeParent=1;resizeParentMax=0;resizeLast=0;collapsible=1;marginBottom=0;" parent="1" vertex="1">
          <mxGeometry x="640" y="576" width="160" height="138" as="geometry"/>
        </mxCell>
        <mxCell id="eSXySc0nS1I4m5UJ5GSd-83" value="DNI: string" style="text;strokeColor=none;fillColor=none;align=left;verticalAlign=top;spacingLeft=4;spacingRight=4;overflow=hidden;rotatable=0;points=[[0,0.5],[1,0.5]];portConstraint=eastwest;" parent="eSXySc0nS1I4m5UJ5GSd-82" vertex="1">
          <mxGeometry y="26" width="160" height="26" as="geometry"/>
        </mxCell>
        <mxCell id="eSXySc0nS1I4m5UJ5GSd-86" value="nombre: string" style="text;strokeColor=none;fillColor=none;align=left;verticalAlign=top;spacingLeft=4;spacingRight=4;overflow=hidden;rotatable=0;points=[[0,0.5],[1,0.5]];portConstraint=eastwest;" parent="eSXySc0nS1I4m5UJ5GSd-82" vertex="1">
          <mxGeometry y="52" width="160" height="26" as="geometry"/>
        </mxCell>
        <mxCell id="eSXySc0nS1I4m5UJ5GSd-87" value="tipoCarnet: string" style="text;strokeColor=none;fillColor=none;align=left;verticalAlign=top;spacingLeft=4;spacingRight=4;overflow=hidden;rotatable=0;points=[[0,0.5],[1,0.5]];portConstraint=eastwest;" parent="eSXySc0nS1I4m5UJ5GSd-82" vertex="1">
          <mxGeometry y="78" width="160" height="26" as="geometry"/>
        </mxCell>
        <mxCell id="eSXySc0nS1I4m5UJ5GSd-84" value="" style="line;strokeWidth=1;fillColor=none;align=left;verticalAlign=middle;spacingTop=-1;spacingLeft=3;spacingRight=3;rotatable=0;labelPosition=right;points=[];portConstraint=eastwest;" parent="eSXySc0nS1I4m5UJ5GSd-82" vertex="1">
          <mxGeometry y="104" width="160" height="8" as="geometry"/>
        </mxCell>
        <mxCell id="eSXySc0nS1I4m5UJ5GSd-85" value="+ method(type): type" style="text;strokeColor=none;fillColor=none;align=left;verticalAlign=top;spacingLeft=4;spacingRight=4;overflow=hidden;rotatable=0;points=[[0,0.5],[1,0.5]];portConstraint=eastwest;" parent="eSXySc0nS1I4m5UJ5GSd-82" vertex="1">
          <mxGeometry y="112" width="160" height="26" as="geometry"/>
        </mxCell>
      </root>
    </mxGraphModel>
  </diagram>
</mxfile>
